<svg xmlns="http://www.w3.org/2000/svg" viewBox="0 0 163.82 163.82"><defs><style>.cls-1{fill:#26b3d6;}</style></defs><title>Circle-Logo</title><g id="Layer_2" data-name="Layer 2"><g id="Layer_1-2" data-name="Layer 1"><path class="cls-1" d="M81.91,0a81.91,81.91,0,1,0,81.91,81.91A81.91,81.91,0,0,0,81.91,0Zm0,155.12a73.21,73.21,0,1,1,73.21-73.21A73.21,73.21,0,0,1,81.91,155.12Z"/><path class="cls-1" d="M69.2,63.31a13.38,13.38,0,0,0-2.89-2.44,25.87,25.87,0,0,0-4.07-2.12,27.53,27.53,0,0,0-4.92-1.54,25.73,25.73,0,0,0-5.55-.58q-7.41,0-10.93,2.79a9.25,9.25,0,0,0-3.52,7.65,7.68,7.68,0,0,0,1.81,5.4,12.94,12.94,0,0,0,5.55,3.24q3.75,1.26,9.53,2.61a64.7,64.7,0,0,1,11.56,3.51,17.9,17.9,0,0,1,7.49,5.54q2.63,3.47,2.62,9.22a17.07,17.07,0,0,1-1.76,8,15.52,15.52,0,0,1-4.92,5.58,21.9,21.9,0,0,1-7.41,3.24,38.83,38.83,0,0,1-9.21,1,43.66,43.66,0,0,1-9.52-1,40.74,40.74,0,0,1-8.81-3,37.57,37.57,0,0,1-7.76-5l3.88-6.87a20,20,0,0,0,3.75,3,35.91,35.91,0,0,0,11.6,4.78,31.64,31.64,0,0,0,7,.77q6.87,0,10.66-2.47a8.09,8.09,0,0,0,3.79-7.23,7.92,7.92,0,0,0-2.12-5.77A16.11,16.11,0,0,0,58.81,88q-4.16-1.44-10.11-2.88a69.9,69.9,0,0,1-10.93-3.56,15.3,15.3,0,0,1-6.63-5.08,14,14,0,0,1-2.22-8.2A17.56,17.56,0,0,1,31.9,58a18.36,18.36,0,0,1,8.22-6.4A30.79,30.79,0,0,1,52,49.4a34.54,34.54,0,0,1,8.08.9,33.42,33.42,0,0,1,7,2.53,30.89,30.89,0,0,1,6,3.89Z"/><path class="cls-1" d="M88.39,114V49.85h27.45a17.12,17.12,0,0,1,7.76,1.76,20.31,20.31,0,0,1,6.14,4.7,22,22,0,0,1,4.07,6.59,20.18,20.18,0,0,1,1.44,7.45,21.53,21.53,0,0,1-1.67,8.4,19.32,19.32,0,0,1-4.69,6.77,16.5,16.5,0,0,1-7.09,3.88L137.33,114h-9.21l-14.63-23h-17v23Zm8.13-30.25h19.41a9.41,9.41,0,0,0,5.82-1.85,12.41,12.41,0,0,0,3.89-4.92,15.71,15.71,0,0,0,1.4-6.59,13.86,13.86,0,0,0-1.63-6.64,13.64,13.64,0,0,0-4.24-4.83,10,10,0,0,0-5.78-1.8H96.52Z"/></g></g></svg>