<svg xmlns="http://www.w3.org/2000/svg" viewBox="0 0 459.33 459.33"><defs><style>.cls-1,.cls-2{fill:#333;}.cls-2{stroke:#333;stroke-miterlimit:10;stroke-width:4px;}</style></defs><title>Asset 5</title><g id="Layer_2" data-name="Layer 2"><g id="Layer_1-2" data-name="Layer 1"><path class="cls-1" d="M315.2,254.53q5.3-11.28,5.3-29.07,0-14.25-3.94-24.12a34.71,34.71,0,0,0-11.85-15.62,49.76,49.76,0,0,0-15.93-7.46l-20.85,20.85q10.1,1.11,14.49,6.22Q288,211.9,288,227.05q0,15.73-6.44,22.24t-21.72,6.5h-8.32V215.53L217.08,250V364.11h34.44V277.79H266.8l22.57,86.32h34.55L297.69,271A32.42,32.42,0,0,0,315.2,254.53Z"/><line class="cls-2" x1="217.12" y1="249.92" x2="328.79" y2="138.26"/><path class="cls-1" d="M175.2,224.76l-30,6.27q1.34,30.73,16.18,45l21.09-21Q175.84,245.75,175.2,224.76Z"/><path class="cls-1" d="M217,187.59l-24.63-21.44a57.6,57.6,0,0,1-11.23-12.6q-3.58-5.87-3.59-15,0-7.76,4-12.37t11.69-5.08a15.35,15.35,0,0,1,7.8,1.26,14,14,0,0,1,5.36,4.27,21.82,21.82,0,0,1,3.25,7,54.31,54.31,0,0,1,1.77,8.55q.51,4.22.74,9.92l29.42-5.82a105.84,105.84,0,0,0-2.39-16.13,61.87,61.87,0,0,0-5.19-14A37.36,37.36,0,0,0,225.42,105a38.63,38.63,0,0,0-13.17-7.18,55.93,55.93,0,0,0-18.35-2.57q-22.59.23-35.52,12.43t-12.94,34.21q0,15.5,5.36,25.82t16.3,19.9L192,209.14a141.1,141.1,0,0,1,10.72,10.32,37.66,37.66,0,0,1,6,9.35l24.06-24.06c-1.61-2.25-3.25-4.38-4.94-6.33A128.82,128.82,0,0,0,217,187.59Z"/><line class="cls-2" x1="131.21" y1="306.24" x2="232.81" y2="204.65"/><path class="cls-1" d="M357.12,375.71a2.08,2.08,0,0,0-2.81-.11c-75.4,64.55-189,61.15-260.36-10.22S19.19,180.47,83.69,105.06a2.12,2.12,0,0,0-.1-2.89L3.8,22.39a2.22,2.22,0,0,0-3.14,0A2.26,2.26,0,0,0,0,24H0V455.81a3.53,3.53,0,0,0,3.52,3.52H435.37a2.23,2.23,0,0,0,1.58-3.8Z"/><path class="cls-1" d="M455.05,0H24a2.21,2.21,0,0,0-2.23,2.21,2.25,2.25,0,0,0,.66,1.59l79.78,79.79a2.12,2.12,0,0,0,2.89.1A191.93,191.93,0,0,1,375.6,354.37a2.05,2.05,0,0,0,.1,2.79l80.07,80.07a2.08,2.08,0,0,0,3.56-1.47V4.29A4.29,4.29,0,0,0,455.05,0Z"/></g></g></svg>